<svg width="145" height="21" viewBox="0 0 145 21" fill="none" xmlns="http://www.w3.org/2000/svg">
<path d="M22.0644 10.0507C22.0085 8.69664 21.6717 7.37022 21.0765 6.15931C20.4813 4.94841 19.6412 3.88068 18.6119 3.0269C17.5029 2.09832 16.216 1.4176 14.8341 1.02862C13.4521 0.639633 12.0058 0.551016 10.5883 0.768476C7.88494 1.18262 5.38809 2.48907 3.47822 4.48876C1.56835 6.48846 0.35018 9.07174 0.0093326 11.845C-0.010704 11.9961 0.00161086 12.1498 0.045425 12.2956C0.0892391 12.4414 0.163506 12.5756 0.263085 12.6892C0.365011 12.8057 0.490136 12.8986 0.630063 12.9616C0.769991 13.0247 0.921485 13.0564 1.07438 13.0546C1.3367 13.0568 1.5907 12.9605 1.78829 12.7841C1.98588 12.6076 2.11335 12.3632 2.14657 12.0971C2.45081 9.73632 3.5178 7.54713 5.17807 5.87731C6.83834 4.20748 8.99668 3.15278 11.3103 2.88073C12.3746 2.76166 13.4515 2.86201 14.4773 3.17585C15.5031 3.48969 16.4569 4.01066 17.2824 4.70793C18.0498 5.35476 18.6797 6.15529 19.1333 7.06027C19.5869 7.96526 19.8546 8.95557 19.92 9.97028C20.045 11.9812 19.3956 13.9624 18.1105 15.4901C16.8255 17.0178 15.0069 17.9708 13.0436 18.1452C12.3721 18.2031 11.696 18.1223 11.0556 17.9076C10.4152 17.6929 9.8236 17.3487 9.31598 16.8954C8.85407 16.4865 8.4786 15.9855 8.21251 15.4231C7.94643 14.8608 7.79533 14.2488 7.76844 13.6247C7.74162 12.9902 7.83947 12.3567 8.05622 11.7616C8.27297 11.1664 8.60422 10.6218 9.03038 10.1598C9.45654 9.69779 9.96896 9.32786 10.5373 9.07186C11.1057 8.81586 11.7186 8.67898 12.3396 8.66931C12.7689 8.66669 13.1859 8.81587 13.5201 9.09158C13.8542 9.36728 14.0848 9.75258 14.173 10.1822C14.2178 10.4447 14.206 10.7139 14.1383 10.9712C14.0706 11.2284 13.9488 11.4674 13.7812 11.6714C13.6137 11.8754 13.4046 12.0395 13.1685 12.1522C12.9325 12.2649 12.6751 12.3234 12.4146 12.3237H12.2895C12.0383 12.3237 11.7974 12.4258 11.6198 12.6074C11.4422 12.789 11.3424 13.0353 11.3424 13.2921V13.5479C11.3424 13.8048 11.4422 14.0511 11.6198 14.2327C11.7974 14.4143 12.0383 14.5164 12.2895 14.5164C13.2349 14.5274 14.1539 14.1982 14.8857 13.5862C15.6175 12.9742 16.1154 12.1185 16.2924 11.1689C16.3881 10.5922 16.3595 10.0011 16.2087 9.43683C16.0579 8.87257 15.7885 8.34876 15.4192 7.90196C15.05 7.45516 14.5898 7.09615 14.0709 6.84997C13.5519 6.6038 12.9867 6.4764 12.4146 6.47666C11.5202 6.47665 10.6345 6.65733 9.80853 7.00833C8.98256 7.35932 8.23254 7.87371 7.60156 8.52195C6.97057 9.17019 6.47106 9.93951 6.1317 10.7857C5.79234 11.6319 5.61982 12.5384 5.62406 13.4529C5.6266 14.4111 5.82982 15.3576 6.22005 16.2288C6.61028 17.0999 7.17847 17.8755 7.88639 18.5033C8.65718 19.1924 9.56117 19.708 10.5396 20.0165C11.518 20.325 12.549 20.4195 13.5654 20.294C15.9811 19.9896 18.1964 18.767 19.771 16.8692C21.3456 14.9714 22.1643 12.5373 22.0644 10.0507Z" fill="#00874B"/>
<path d="M143.001 20.0877V17.5895L143.453 17.9851H141.283C140.597 17.9851 140.005 17.8721 139.508 17.646C139.011 17.4199 138.63 17.0921 138.366 16.6625C138.103 16.233 137.971 15.7205 137.971 15.1252C137.971 14.5072 138.11 13.9797 138.389 13.5426C138.675 13.098 139.075 12.7588 139.587 12.5252C140.1 12.2916 140.703 12.1748 141.396 12.1748H144.81V20.0877H143.001ZM137.993 20.0877L139.96 17.2503H141.814L139.926 20.0877H137.993ZM143.001 17.0016V13.1922L143.453 13.6669H141.441C140.921 13.6669 140.522 13.7875 140.243 14.0287C139.972 14.2698 139.836 14.6278 139.836 15.1026C139.836 15.5623 139.968 15.9165 140.232 16.1651C140.495 16.4138 140.883 16.5382 141.396 16.5382H143.453L143.001 17.0016Z" fill="#00874B"/>
<path d="M129.207 20.0877V12.1748H131.027V17.3295L134.803 12.1748H136.521V20.0877H134.712V14.9443L130.937 20.0877H129.207Z" fill="#00874B"/>
<path d="M125.393 12.1748H127.224V20.0877H125.393V12.1748ZM121.798 20.0877H119.967V12.1748H121.798V20.0877ZM125.528 16.8434H121.662V15.2947H125.528V16.8434Z" fill="#00874B"/>
<path d="M114.045 15.3626H117.854V16.7869H114.045V15.3626ZM114.18 18.6181H118.487V20.0877H112.36V12.1748H118.34V13.6443H114.18V18.6181Z" fill="#00874B"/>
<path d="M109.369 20.0877L107.244 16.2782L108.793 15.3852L111.483 20.0877H109.369ZM105.899 16.8999V15.3739H108.363V16.8999H105.899ZM108.895 16.3347L107.199 16.1312L109.403 12.1748H111.336L108.895 16.3347ZM101.694 20.0877H99.5801L102.27 15.3852L103.819 16.2782L101.694 20.0877ZM106.442 20.0877H104.644V12.1748H106.442V20.0877ZM105.176 16.8999H102.7V15.3739H105.176V16.8999ZM102.18 16.3347L99.727 12.1748H101.66L103.853 16.1312L102.18 16.3347Z" fill="#00874B"/>
<path d="M92.8054 18.5955C93.2424 18.7236 93.6079 18.7613 93.9019 18.7086C94.2033 18.6483 94.4708 18.4373 94.7044 18.0755L95.0888 17.499L95.2583 17.3069L97.8809 12.1748H99.6782L96.3096 18.4373C96.0082 19.0025 95.6502 19.4358 95.2357 19.7372C94.8288 20.0387 94.3804 20.2082 93.8906 20.2459C93.4007 20.2911 92.892 20.2045 92.3645 19.9859L92.8054 18.5955ZM95.2244 18.8329L91.6523 12.1748H93.608L96.2305 17.4877L95.2244 18.8329Z" fill="#00874B"/>
<path d="M84.6416 20.0877V12.1748H88.0667C88.7751 12.1748 89.3856 12.2916 89.898 12.5252C90.4105 12.7513 90.8061 13.0791 91.0849 13.5087C91.3638 13.9382 91.5032 14.4507 91.5032 15.046C91.5032 15.6339 91.3638 16.1425 91.0849 16.5721C90.8061 17.0016 90.4105 17.3332 89.898 17.5669C89.3856 17.7929 88.7751 17.906 88.0667 17.906H85.659L86.4729 17.0808V20.0877H84.6416ZM86.4729 17.2843L85.659 16.4138H87.965C88.5302 16.4138 88.9522 16.2933 89.2311 16.0521C89.5099 15.811 89.6493 15.4756 89.6493 15.046C89.6493 14.609 89.5099 14.2698 89.2311 14.0287C88.9522 13.7875 88.5302 13.6669 87.965 13.6669H85.659L86.4729 12.7965V17.2843Z" fill="#00874B"/>
<path d="M81.7039 20.0877L79.2396 16.2782L80.7204 15.3852L83.7839 20.0877H81.7039ZM76.5605 20.0877V12.1748H78.3805V20.0877H76.5605ZM77.8492 16.8999V15.3739H80.6074V16.8999H77.8492ZM80.89 16.3347L79.2057 16.1312L81.7717 12.1748H83.7047L80.89 16.3347Z" fill="#00874B"/>
<path d="M70.8544 20.2232C70.2289 20.2232 69.6487 20.1215 69.1136 19.918C68.5861 19.7145 68.1264 19.4282 67.7345 19.0589C67.3502 18.6896 67.0487 18.2563 66.8302 17.7589C66.6192 17.2615 66.5137 16.719 66.5137 16.1311C66.5137 15.5433 66.6192 15.0007 66.8302 14.5034C67.0487 14.006 67.3539 13.5726 67.7458 13.2034C68.1377 12.8341 68.5974 12.5477 69.1249 12.3443C69.6524 12.1408 70.2252 12.0391 70.8431 12.0391C71.4686 12.0391 72.0414 12.1408 72.5614 12.3443C73.0889 12.5477 73.5448 12.8341 73.9292 13.2034C74.321 13.5726 74.6262 14.006 74.8448 14.5034C75.0633 14.9932 75.1726 15.5358 75.1726 16.1311C75.1726 16.719 75.0633 17.2653 74.8448 17.7702C74.6262 18.2676 74.321 18.7009 73.9292 19.0702C73.5448 19.4319 73.0889 19.7145 72.5614 19.918C72.0414 20.1215 71.4724 20.2232 70.8544 20.2232ZM70.8431 18.6633C71.1973 18.6633 71.5214 18.603 71.8153 18.4824C72.1167 18.3618 72.3805 18.1885 72.6066 17.9624C72.8327 17.7363 73.006 17.4688 73.1266 17.1598C73.2547 16.8508 73.3187 16.5079 73.3187 16.1311C73.3187 15.7543 73.2547 15.4114 73.1266 15.1025C73.006 14.7935 72.8327 14.526 72.6066 14.2999C72.388 14.0738 72.128 13.9005 71.8266 13.7799C71.5252 13.6593 71.1973 13.599 70.8431 13.599C70.4889 13.599 70.1611 13.6593 69.8597 13.7799C69.5658 13.9005 69.3058 14.0738 69.0797 14.2999C68.8536 14.526 68.6765 14.7935 68.5484 15.1025C68.4278 15.4114 68.3675 15.7543 68.3675 16.1311C68.3675 16.5004 68.4278 16.8433 68.5484 17.1598C68.6765 17.4688 68.8499 17.7363 69.0684 17.9624C69.2945 18.1885 69.5582 18.3618 69.8597 18.4824C70.1611 18.603 70.4889 18.6633 70.8431 18.6633Z" fill="#00874B"/>
<path d="M58.6445 20.0877V12.1748H62.3297C63.2491 12.1748 63.965 12.3519 64.4774 12.7061C64.9899 13.0603 65.2461 13.5652 65.2461 14.2208C65.2461 14.8689 65.005 15.3739 64.5227 15.7356C64.0403 16.0898 63.3998 16.2669 62.601 16.2669L62.8157 15.7921C63.705 15.7921 64.3945 15.9692 64.8844 16.3234C65.3742 16.6776 65.6192 17.19 65.6192 17.8608C65.6192 18.5541 65.3554 19.1004 64.8279 19.4999C64.3079 19.8917 63.5467 20.0877 62.5444 20.0877H58.6445ZM60.4645 18.7312H62.4766C62.8986 18.7312 63.2189 18.6483 63.4375 18.4825C63.656 18.3167 63.7653 18.0605 63.7653 17.7138C63.7653 17.3822 63.656 17.1373 63.4375 16.979C63.2189 16.8132 62.8986 16.7304 62.4766 16.7304H60.4645V18.7312ZM60.4645 15.453H62.1714C62.5708 15.453 62.8723 15.3739 63.0757 15.2156C63.2792 15.0498 63.3809 14.8087 63.3809 14.4921C63.3809 14.1756 63.2792 13.9382 63.0757 13.78C62.8723 13.6142 62.5708 13.5313 62.1714 13.5313H60.4645V15.453Z" fill="#00874B"/>
<path d="M52.916 20.2232C52.2905 20.2232 51.7102 20.1215 51.1751 19.918C50.6476 19.7145 50.1879 19.4282 49.796 19.0589C49.4117 18.6896 49.1103 18.2563 48.8917 17.7589C48.6807 17.2615 48.5752 16.719 48.5752 16.1311C48.5752 15.5433 48.6807 15.0007 48.8917 14.5034C49.1103 14.006 49.4155 13.5726 49.8073 13.2034C50.1992 12.8341 50.6589 12.5477 51.1864 12.3443C51.714 12.1408 52.2867 12.0391 52.9047 12.0391C53.5302 12.0391 54.1029 12.1408 54.6229 12.3443C55.1504 12.5477 55.6063 12.8341 55.9907 13.2034C56.3826 13.5726 56.6878 14.006 56.9063 14.5034C57.1249 14.9932 57.2341 15.5358 57.2341 16.1311C57.2341 16.719 57.1249 17.2653 56.9063 17.7702C56.6878 18.2676 56.3826 18.7009 55.9907 19.0702C55.6063 19.4319 55.1504 19.7145 54.6229 19.918C54.1029 20.1215 53.5339 20.2232 52.916 20.2232ZM52.9047 18.6633C53.2589 18.6633 53.5829 18.603 53.8768 18.4824C54.1783 18.3618 54.442 18.1885 54.6681 17.9624C54.8942 17.7363 55.0675 17.4688 55.1881 17.1598C55.3162 16.8508 55.3803 16.5079 55.3803 16.1311C55.3803 15.7543 55.3162 15.4114 55.1881 15.1025C55.0675 14.7935 54.8942 14.526 54.6681 14.2999C54.4496 14.0738 54.1896 13.9005 53.8881 13.7799C53.5867 13.6593 53.2589 13.599 52.9047 13.599C52.5505 13.599 52.2226 13.6593 51.9212 13.7799C51.6273 13.9005 51.3673 14.0738 51.1412 14.2999C50.9151 14.526 50.738 14.7935 50.6099 15.1025C50.4894 15.4114 50.4291 15.7543 50.4291 16.1311C50.4291 16.5004 50.4894 16.8433 50.6099 17.1598C50.738 17.4688 50.9114 17.7363 51.1299 17.9624C51.356 18.1885 51.6198 18.3618 51.9212 18.4824C52.2226 18.603 52.5505 18.6633 52.9047 18.6633Z" fill="#00874B"/>
<path d="M40.1778 20.212C40.0421 20.212 39.8989 20.2007 39.7482 20.1781C39.605 20.1555 39.4468 20.1253 39.2734 20.0877L39.3865 18.539C39.492 18.5691 39.6013 18.5842 39.7143 18.5842C40.0233 18.5842 40.2644 18.4599 40.4378 18.2112C40.6111 17.955 40.7354 17.5895 40.8108 17.1147C40.8862 16.6399 40.9351 16.0634 40.9577 15.3852L41.0708 12.1748H47.1524V20.0877H45.3437V13.2487L45.762 13.6669H42.269L42.6421 13.2261L42.5742 15.3173C42.5516 16.0936 42.4989 16.7831 42.416 17.386C42.3331 17.9889 42.205 18.5013 42.0316 18.9233C41.8583 19.3454 41.6209 19.6656 41.3195 19.8842C41.018 20.1027 40.6375 20.212 40.1778 20.212Z" fill="#00874B"/>
<path d="M34.5908 20.2232C33.9653 20.2232 33.385 20.1215 32.8499 19.918C32.3224 19.7145 31.8627 19.4282 31.4708 19.0589C31.0865 18.6896 30.7851 18.2563 30.5665 17.7589C30.3555 17.2615 30.25 16.719 30.25 16.1311C30.25 15.5433 30.3555 15.0007 30.5665 14.5034C30.7851 14.006 31.0903 13.5726 31.4821 13.2034C31.874 12.8341 32.3337 12.5477 32.8612 12.3443C33.3888 12.1408 33.9615 12.0391 34.5795 12.0391C35.205 12.0391 35.7777 12.1408 36.2977 12.3443C36.8252 12.5477 37.2811 12.8341 37.6655 13.2034C38.0574 13.5726 38.3626 14.006 38.5811 14.5034C38.7997 14.9932 38.9089 15.5358 38.9089 16.1311C38.9089 16.719 38.7997 17.2653 38.5811 17.7702C38.3626 18.2676 38.0574 18.7009 37.6655 19.0702C37.2811 19.4319 36.8252 19.7145 36.2977 19.918C35.7777 20.1215 35.2087 20.2232 34.5908 20.2232ZM34.5795 18.6633C34.9337 18.6633 35.2577 18.603 35.5516 18.4824C35.8531 18.3618 36.1168 18.1885 36.3429 17.9624C36.569 17.7363 36.7423 17.4688 36.8629 17.1598C36.991 16.8508 37.0551 16.5079 37.0551 16.1311C37.0551 15.7543 36.991 15.4114 36.8629 15.1025C36.7423 14.7935 36.569 14.526 36.3429 14.2999C36.1244 14.0738 35.8644 13.9005 35.5629 13.7799C35.2615 13.6593 34.9337 13.599 34.5795 13.599C34.2253 13.599 33.8975 13.6593 33.596 13.7799C33.3021 13.9005 33.0421 14.0738 32.816 14.2999C32.5899 14.526 32.4128 14.7935 32.2847 15.1025C32.1642 15.4114 32.1039 15.7543 32.1039 16.1311C32.1039 16.5004 32.1642 16.8433 32.2847 17.1598C32.4128 17.4688 32.5862 17.7363 32.8047 17.9624C33.0308 18.1885 33.2946 18.3618 33.596 18.4824C33.8975 18.603 34.2253 18.6633 34.5795 18.6633Z" fill="#00874B"/>
<path d="M24.9092 20.0877V12.1748H30.4934L30.4821 13.6669H26.2996L26.7178 13.2487L26.7291 20.0877H24.9092Z" fill="#00874B"/>
<path d="M89.3828 8.0828L89.948 6.77152C90.2871 6.975 90.6489 7.13325 91.0332 7.24629C91.4251 7.3518 91.8057 7.41209 92.1749 7.42716C92.5517 7.43469 92.8908 7.39701 93.1923 7.31412C93.5013 7.23122 93.7462 7.10688 93.9271 6.94108C94.1155 6.77529 94.2097 6.56428 94.2097 6.30805C94.2097 6.00661 94.0853 5.7843 93.8366 5.64111C93.5879 5.49039 93.2563 5.41503 92.8419 5.41503H90.9089V4.03593H92.7062C93.0755 4.03593 93.3619 3.96057 93.5653 3.80985C93.7763 3.65913 93.8818 3.45189 93.8818 3.18813C93.8818 2.96204 93.8065 2.78118 93.6558 2.64553C93.505 2.50235 93.2978 2.39684 93.034 2.32902C92.7778 2.26119 92.4877 2.23105 92.1636 2.23858C91.8396 2.24612 91.5042 2.29887 91.1576 2.39684C90.8109 2.49481 90.4793 2.63046 90.1628 2.80379L89.6089 1.39078C90.1213 1.12701 90.6602 0.94615 91.2254 0.848181C91.7981 0.742676 92.3483 0.7163 92.8758 0.769052C93.4108 0.814268 93.8931 0.934845 94.3227 1.13078C94.7523 1.31918 95.0951 1.56787 95.3514 1.87685C95.6076 2.18583 95.7357 2.55133 95.7357 2.97335C95.7357 3.35015 95.6377 3.68551 95.4418 3.97941C95.2459 4.27332 94.9708 4.4994 94.6166 4.65766C94.2699 4.81591 93.8705 4.89504 93.4184 4.89504L93.4636 4.4881C93.9911 4.4881 94.447 4.57853 94.8314 4.75939C95.2233 4.93272 95.5247 5.17765 95.7357 5.49416C95.9543 5.80314 96.0635 6.1611 96.0635 6.56805C96.0635 6.94485 95.9618 7.28397 95.7583 7.58542C95.5624 7.87932 95.2911 8.12801 94.9444 8.33149C94.5978 8.53496 94.2021 8.68568 93.7575 8.78365C93.3129 8.88162 92.8381 8.92307 92.3332 8.90799C91.8358 8.89292 91.3347 8.82133 90.8297 8.69322C90.3248 8.55757 89.8425 8.35409 89.3828 8.0828Z" fill="#00874B"/>
<path d="M84.1726 4.05836H87.9821V5.48267H84.1726V4.05836ZM84.3082 7.31393H88.6151V8.78347H82.4883V0.870605H88.4681V2.34014H84.3082V7.31393Z" fill="#00874B"/>
<path d="M74.1436 8.78347V0.870605H80.5304V2.32883H75.9635V3.95662H78.1565C79.1136 3.95662 79.8408 4.15633 80.3382 4.55574C80.8431 4.95515 81.0956 5.53542 81.0956 6.29657C81.0956 7.08032 80.8167 7.69074 80.2591 8.12783C79.7014 8.56492 78.9139 8.78347 77.8965 8.78347H74.1436ZM75.9635 7.42698H77.7948C78.262 7.42698 78.62 7.33654 78.8687 7.15568C79.1174 6.96728 79.2417 6.69598 79.2417 6.34178C79.2417 5.64847 78.7594 5.30181 77.7948 5.30181H75.9635V7.42698Z" fill="#00874B"/>
<path d="M66.627 3.47055C67.5841 3.47055 68.3226 3.68532 68.8426 4.11488C69.3626 4.5369 69.6226 5.17369 69.6226 6.02527C69.6226 6.92959 69.3324 7.61538 68.7522 8.08261C68.1794 8.54985 67.3844 8.78347 66.367 8.78347H62.7949V0.870605H64.6149V3.47055H66.627ZM66.2653 7.42698C66.7325 7.42698 67.1018 7.31017 67.3731 7.07655C67.6444 6.84293 67.78 6.50381 67.78 6.05918C67.78 5.62209 67.6444 5.30934 67.3731 5.12094C67.1093 4.925 66.74 4.82704 66.2653 4.82704H64.6149V7.42698H66.2653Z" fill="#00874B"/>
<path d="M58.9816 0.870605H60.8129V8.78347H58.9816V0.870605ZM55.3869 8.78347H53.5557V0.870605H55.3869V8.78347ZM59.1173 5.53919H55.2513V3.99053H59.1173V5.53919Z" fill="#00874B"/>
<path d="M45.4248 8.0828L45.99 6.77152C46.3291 6.975 46.6909 7.13325 47.0752 7.24629C47.4671 7.3518 47.8476 7.41209 48.2169 7.42716C48.5937 7.43469 48.9328 7.39701 49.2343 7.31412C49.5433 7.23122 49.7882 7.10688 49.969 6.94108C50.1574 6.77529 50.2516 6.56428 50.2516 6.30805C50.2516 6.00661 50.1273 5.7843 49.8786 5.64111C49.6299 5.49039 49.2983 5.41503 48.8839 5.41503H46.9509V4.03593H48.7482C49.1175 4.03593 49.4038 3.96057 49.6073 3.80985C49.8183 3.65913 49.9238 3.45189 49.9238 3.18813C49.9238 2.96204 49.8485 2.78118 49.6977 2.64553C49.547 2.50235 49.3398 2.39684 49.076 2.32902C48.8198 2.26119 48.5297 2.23105 48.2056 2.23858C47.8816 2.24612 47.5462 2.29887 47.1995 2.39684C46.8529 2.49481 46.5213 2.63046 46.2048 2.80379L45.6509 1.39078C46.1633 1.12701 46.7022 0.94615 47.2674 0.848181C47.8401 0.742676 48.3902 0.7163 48.9178 0.769052C49.4528 0.814268 49.9351 0.934845 50.3647 1.13078C50.7942 1.31918 51.1371 1.56787 51.3934 1.87685C51.6496 2.18583 51.7777 2.55133 51.7777 2.97335C51.7777 3.35015 51.6797 3.68551 51.4838 3.97941C51.2879 4.27332 51.0128 4.4994 50.6586 4.65766C50.3119 4.81591 49.9125 4.89504 49.4604 4.89504L49.5056 4.4881C50.0331 4.4881 50.489 4.57853 50.8734 4.75939C51.2652 4.93272 51.5667 5.17765 51.7777 5.49416C51.9962 5.80314 52.1055 6.1611 52.1055 6.56805C52.1055 6.94485 52.0038 7.28397 51.8003 7.58542C51.6044 7.87932 51.3331 8.12801 50.9864 8.33149C50.6398 8.53496 50.2441 8.68568 49.7995 8.78365C49.3549 8.88162 48.8801 8.92307 48.3752 8.90799C47.8778 8.89292 47.3766 8.82133 46.8717 8.69322C46.3668 8.55757 45.8845 8.35409 45.4248 8.0828Z" fill="#00874B"/>
<path d="M36.8525 8.78347V0.870605H38.6725V6.02527L42.4481 0.870605H44.1663V8.78347H42.3576V3.64011L38.5821 8.78347H36.8525Z" fill="#00874B"/>
<path d="M33.8616 8.78347L31.7364 4.97399L33.2851 4.08097L35.9755 8.78347H33.8616ZM30.3912 5.59571V4.06966H32.8555V5.59571H30.3912ZM33.3868 5.03051L31.6912 4.82704L33.8955 0.870605H35.8285L33.3868 5.03051ZM26.1861 8.78347H24.0723L26.7626 4.08097L28.3113 4.97399L26.1861 8.78347ZM30.9338 8.78347H29.1365V0.870605H30.9338V8.78347ZM29.6678 5.59571H27.1922V4.06966H29.6678V5.59571ZM26.6722 5.03051L24.2192 0.870605H26.1522L28.3452 4.82704L26.6722 5.03051Z" fill="#00874B"/>
</svg>
