<svg width="19" height="16" viewBox="0 0 19 16" xmlns="http://www.w3.org/2000/svg">
<path d="M17.7166 9.06003C17.9975 8.77878 18.1553 8.39753 18.1553 8.00003C18.1553 7.60253 17.9975 7.22128 17.7166 6.94003L12.0606 1.28103C11.7792 0.999639 11.3975 0.841552 10.9996 0.841552C10.6016 0.841552 10.22 0.999638 9.93859 1.28103C9.6572 1.56243 9.49911 1.94408 9.49911 2.34203C9.49911 2.73999 9.6572 3.12164 9.93859 3.40303L13.0346 6.50003L1.49959 6.50003C1.10177 6.50003 0.720239 6.65807 0.438934 6.93937C0.157629 7.22068 -0.000406561 7.60221 -0.000406578 8.00003C-0.000406596 8.39786 0.157629 8.77939 0.438934 9.06069C0.720239 9.342 1.10177 9.50003 1.49959 9.50003L13.0346 9.50003L9.93859 12.596C9.79926 12.7354 9.68874 12.9008 9.61333 13.0828C9.53792 13.2649 9.49911 13.46 9.49911 13.657C9.49911 13.8541 9.53792 14.0492 9.61333 14.2312C9.68874 14.4133 9.79926 14.5787 9.93859 14.718C10.0779 14.8574 10.2433 14.9679 10.4254 15.0433C10.6074 15.1187 10.8025 15.1575 10.9996 15.1575C11.1966 15.1575 11.3918 15.1187 11.5738 15.0433C11.7558 14.9679 11.9213 14.8574 12.0606 14.718L17.7166 9.06003Z"/>
</svg>
