<svg width="18" height="19" viewBox="0 0 18 19" fill="none" xmlns="http://www.w3.org/2000/svg">
<path d="M3.60938 15.5C5.47604 14.7 6.67604 14.0333 7.20937 13.5C8.00937 12.7 5.60937 12.7 5.60937 8.69995C5.60937 6.03328 6.67604 4.69995 8.80937 4.69995C10.9427 4.69995 12.0094 6.03328 12.0094 8.69995C12.0094 12.7 9.60937 12.7 10.4094 13.5C10.9427 14.0333 12.1427 14.7 14.0094 15.5" stroke="black" stroke-width="1.3" stroke-linecap="round" stroke-linejoin="round"/>
<path d="M8.80957 17.5C13.2278 17.5 16.8096 13.9183 16.8096 9.5C16.8096 5.08172 13.2278 1.5 8.80957 1.5C4.39129 1.5 0.80957 5.08172 0.80957 9.5C0.80957 13.9183 4.39129 17.5 8.80957 17.5Z" stroke="black" stroke-width="1.3" stroke-linecap="round" stroke-linejoin="round"/>
</svg>
