<svg width="35" height="38" viewBox="0 0 35 38" fill="none" xmlns="http://www.w3.org/2000/svg">
<path d="M34.9996 13.9279C34.9982 16.7136 34.4259 19.4703 33.3172 22.0182C31.1398 27.2468 27.4032 31.644 22.6377 34.5888C20.8409 35.7221 18.8695 36.5359 16.8065 36.9968C14.6863 37.462 12.579 37.4883 10.4933 36.7999L10.4919 36.8013C9.26581 36.4061 8.13135 35.76 7.15709 34.9024C6.04838 33.9238 4.92964 32.9539 3.79229 32.0102C1.87526 30.4147 0.759408 28.3597 0.271544 25.9168V25.9153C-0.150471 23.6328 -0.0803882 21.2848 0.480412 19.0326C1.31016 15.5439 2.86667 12.2798 5.04409 9.46049C6.81807 7.0671 8.97528 4.9931 11.4232 3.32898C13.4203 1.95072 15.6448 0.950193 17.9913 0.375537C19.3561 0.041545 20.7638 -0.070754 22.1631 0.0430049C24.2861 0.193227 26.3034 1.05081 27.9013 2.48306C28.3133 2.85497 28.7225 3.22981 29.1374 3.60027C29.7926 4.18512 30.4406 4.76414 31.1488 5.29649C32.9113 6.62517 33.97 8.46287 34.5393 10.5924L34.5379 10.5939C34.8383 11.6789 34.9943 12.8006 35 13.928L34.9996 13.9279ZM29.4661 11.4631C29.4661 9.63853 29.2916 8.36817 28.9182 7.24959C28.0284 4.59077 26.2944 2.79377 23.6107 2.03097V2.02951C22.14 1.63426 20.5992 1.58468 19.1071 1.88512C17.0484 2.27014 15.0785 3.04026 13.296 4.15597C9.70229 6.36412 6.71508 9.46494 4.61508 13.1665C3.02422 15.9187 1.96272 18.859 1.71664 22.0662C1.54211 23.8893 1.79962 25.7285 2.47058 27.429C3.36042 29.7655 5.33609 31.4939 7.7367 32.0394C9.19165 32.3865 10.7038 32.4113 12.17 32.1137C13.7737 31.8191 15.3231 31.2664 16.7564 30.4759C22.1855 27.4933 25.9782 23.0316 28.2441 17.195C28.9723 15.3705 29.386 13.4308 29.4661 11.4631ZM32.2286 20.1671H32.2272C32.1814 20.1 32.1299 20.0373 32.0713 19.9804C31.3603 19.4204 30.6478 18.8749 29.9354 18.344C29.8696 18.3061 29.7995 18.2799 29.7265 18.2667L27.7337 22.282V22.2805C28.562 22.9864 29.4447 23.6208 30.376 24.1765C31.1257 22.9077 31.7451 21.5644 32.2244 20.1673L32.2286 20.1671ZM17.6235 32.0362C18.3631 32.7888 19.16 33.4816 20.0097 34.1044C20.416 33.8871 20.8467 33.6712 21.2644 33.432C21.6821 33.1928 22.0469 32.9668 22.4375 32.7086C22.828 32.4505 23.2672 32.2302 23.5791 31.8262L21.273 29.6428L17.6235 32.0362ZM27.0127 28.7692L27.0113 28.7678C27.8697 27.846 28.6479 26.8484 29.3346 25.7881C29.3532 25.756 29.3346 25.7006 29.3346 25.6262C28.9326 25.3097 28.5235 24.9772 28.1014 24.6577C27.6794 24.3383 27.3189 23.8949 26.7981 23.6368C26.4076 24.1691 26.037 24.6607 25.6479 25.1492C25.2588 25.6378 24.8654 26.106 24.4405 26.6165L27.0127 28.7692ZM33.3087 14.5666L31.2229 12.8864L31.22 12.8849C31.2014 12.8718 31.1785 12.866 31.1556 12.866C31.1241 12.8718 31.0927 12.882 31.0641 12.898C30.9539 13.4931 30.8552 14.1071 30.725 14.7168C30.5948 15.325 30.4332 15.9711 30.2786 16.6128C30.7121 16.9103 31.0998 17.1947 31.5075 17.4529C31.9138 17.711 32.2901 18.0771 32.7851 18.2901C33.1055 17.0737 33.2829 15.8237 33.313 14.5651L33.3087 14.5666ZM18.0542 34.7738C17.3575 34.0825 16.6879 33.4145 16.0227 32.748C15.4075 32.9609 14.8224 33.1607 14.2416 33.3678C13.6593 33.5749 13.0413 33.6333 12.4004 33.8783C12.997 34.4107 13.5692 34.8774 14.1271 35.3543L14.1257 35.3514C14.3188 35.5176 14.5706 35.5949 14.8224 35.5672C15.8739 35.4841 16.9111 35.2697 17.9097 34.9255C17.9511 34.9153 17.9755 34.8627 18.0584 34.7723L18.0542 34.7738ZM22.4362 28.5766C23.3174 29.3365 24.1372 30.0365 24.9627 30.7468L24.9612 30.7439C25.2688 30.5411 25.5349 30.2786 25.7438 29.9723L23.4276 27.8459C23.409 27.8328 23.3875 27.824 23.3661 27.8196H23.2516L22.4362 28.5766ZM31.1944 10.3672C31.1314 10.4854 31.1171 10.6239 31.1586 10.7523C31.1987 10.8806 31.2888 10.9871 31.409 11.044C31.9154 11.3969 32.4161 11.7586 32.9211 12.1072V12.1087C32.9798 12.132 33.0413 12.1437 33.1043 12.1422C33.037 11.6376 33.037 11.6376 32.7623 11.4378C32.356 11.1432 31.9483 10.85 31.5392 10.5554C31.4319 10.4737 31.3117 10.4197 31.1944 10.3672ZM9.40769 34.0297C9.64088 34.368 9.95133 34.6422 10.3133 34.8274C10.6423 35.0418 11.0143 35.1775 11.4034 35.2242L10.3347 34.177L10.3333 34.1755C10.2174 34.0588 10.0586 33.9976 9.89555 34.0063C9.73962 34.0297 9.57796 34.0136 9.40773 34.0136L9.40769 34.0297ZM30.8109 7.4415C30.8367 8.04823 30.8496 8.10655 30.9855 8.23928C31.2416 8.47118 31.5577 8.62139 31.8968 8.67247C31.655 8.16636 31.2787 7.74049 30.8109 7.4415ZM27.4461 10.7785H27.4476C27.4347 12.4441 27.1114 14.0922 26.4948 15.6338C24.4347 21.0783 20.5178 25.5823 15.4633 28.321C14.0771 29.1057 12.5592 29.6205 10.9883 29.8422C9.85238 30.0274 8.69075 29.9647 7.57915 29.6613C5.70218 29.1538 4.20145 27.7157 3.589 25.8358C3.33292 25.108 3.18555 24.3452 3.15123 23.5722C3.03678 21.5012 3.48027 19.5338 4.21559 17.6214C5.01816 15.5781 6.10545 13.6629 7.44305 11.935C9.21414 9.56786 11.3973 7.55232 13.8852 5.99312C15.2671 5.11073 16.7693 4.44714 18.3445 4.02273C19.3202 3.75437 20.3302 3.63771 21.3387 3.67707C22.5133 3.71499 23.6578 4.06941 24.6535 4.7053C26.0769 5.64892 26.8752 7.02868 27.2615 8.69291V8.69436C27.4003 9.37838 27.4632 10.077 27.4475 10.7756L27.4461 10.7785ZM25.8081 10.7785C25.7451 10.2228 25.7165 9.65985 25.6092 9.11439C25.2272 7.17607 23.9597 5.73217 21.7879 5.44194C20.7378 5.32235 19.6749 5.41277 18.6577 5.70885C17.0368 6.15514 15.5032 6.88437 14.1285 7.86738C11.3388 9.78382 8.99382 12.2967 7.25566 15.2329C6.1913 16.9597 5.43447 18.8631 5.01817 20.8581C4.7578 22.0482 4.73491 23.2806 4.95093 24.4795C5.31288 26.2749 6.43449 27.7626 8.5532 28.1359H8.55177C9.52889 28.2891 10.5246 28.2482 11.486 28.0134C12.8522 27.6882 14.1598 27.15 15.3644 26.4179C17.6119 25.0877 19.6091 23.3623 21.2626 21.3206C22.8793 19.3983 24.1453 17.196 25.0008 14.8172C25.4772 13.5191 25.7519 12.1526 25.8134 10.7684L25.8081 10.7785Z" fill="#00874B"/>
</svg>
