<svg width="48" height="48" viewBox="0 0 48 48" fill="none" xmlns="http://www.w3.org/2000/svg">
<path d="M4 21.5V11H11.875V9.25C11.875 7.85761 12.4281 6.52226 13.4127 5.53769C14.3973 4.55312 15.7326 4 17.125 4C18.5174 4 19.8527 4.55312 20.8373 5.53769C21.8219 6.52226 22.375 7.85761 22.375 9.25V11H30.25V21.5H33.75C35.1424 21.5 36.4777 22.0531 37.4623 23.0377C38.4469 24.0223 39 25.3576 39 26.75C39 28.1424 38.4469 29.4777 37.4623 30.4623C36.4777 31.4469 35.1424 32 33.75 32H30.25V39H4V32H7.5C8.89239 32 10.2277 31.4469 11.2123 30.4623C12.1969 29.4777 12.75 28.1424 12.75 26.75C12.75 25.3576 12.1969 24.0223 11.2123 23.0377C10.2277 22.0531 8.89239 21.5 7.5 21.5H4Z" stroke="white" stroke-width="4" stroke-linejoin="round"/>
</svg>
