<svg xmlns="http://www.w3.org/2000/svg" version="1.1" xmlns:xlink="http://www.w3.org/1999/xlink" xmlns:svgjs="http://svgjs.com/svgjs" width="60" height="54"><svg width="60" height="54" viewBox="0 0 60 54" fill="none" xmlns="http://www.w3.org/2000/svg">
<path d="M59.802 26.0911C59.6505 22.4212 58.7379 18.8262 57.1247 15.5442C55.5115 12.2622 53.2345 9.36832 50.4447 7.05428C47.439 4.53749 43.951 2.69251 40.2055 1.63823C36.4599 0.583957 32.5399 0.343775 28.698 0.933167C21.3709 2.05564 14.6036 5.59658 9.42717 11.0164C4.25076 16.4363 0.949109 23.4379 0.0252946 30.9543C-0.0290116 31.3639 0.00436599 31.7806 0.123117 32.1757C0.241869 32.5707 0.443157 32.9347 0.713051 33.2423C0.989305 33.5582 1.32844 33.81 1.70769 33.9808C2.08694 34.1517 2.49754 34.2376 2.91194 34.2328C3.62293 34.2387 4.31135 33.9778 4.84689 33.4996C5.38243 33.0213 5.72791 32.3589 5.81795 31.6378C6.64254 25.2391 9.53446 19.3057 14.0344 14.7799C18.5343 10.2541 24.3841 7.39545 30.6547 6.65809C33.5395 6.33537 36.4583 6.60736 39.2385 7.45799C42.0187 8.30861 44.6039 9.72059 46.8412 11.6104C48.9212 13.3636 50.6283 15.5333 51.8577 17.9861C53.0871 20.4389 53.8128 23.123 53.99 25.8732C54.3289 31.3236 52.5687 36.6933 49.0858 40.8338C45.6029 44.9744 40.6739 47.5573 35.3528 48.0301C33.5326 48.187 31.7002 47.9681 29.9645 47.3861C28.2288 46.8042 26.6254 45.8712 25.2495 44.6427C23.9976 43.5343 22.9799 42.1766 22.2587 40.6523C21.5376 39.1281 21.128 37.4695 21.0552 35.7779C20.9825 34.0583 21.2477 32.3412 21.8351 30.7282C22.4226 29.1152 23.3204 27.639 24.4754 26.3868C25.6305 25.1347 27.0193 24.1321 28.5598 23.4382C30.1004 22.7443 31.7613 22.3734 33.4445 22.3472C34.6081 22.3401 35.7384 22.7444 36.644 23.4916C37.5496 24.2389 38.1748 25.2832 38.4138 26.4477C38.5352 27.1589 38.5031 27.8887 38.3197 28.586C38.1363 29.2832 37.806 29.931 37.3519 30.4839C36.8979 31.0369 36.3311 31.4816 35.6913 31.787C35.0514 32.0924 34.354 32.2511 33.6479 32.2519H33.3089C32.6281 32.2519 31.9751 32.5284 31.4937 33.0206C31.0123 33.5129 30.7419 34.1805 30.7419 34.8766V35.5699C30.7419 36.2661 31.0123 36.9337 31.4937 37.4259C31.9751 37.9182 32.6281 38.1947 33.3089 38.1947C35.871 38.2247 38.3619 37.3323 40.3453 35.6736C42.3288 34.0149 43.6784 31.6957 44.158 29.122C44.4173 27.5589 44.34 25.9567 43.9312 24.4274C43.5225 22.8981 42.7922 21.4783 41.7915 20.2674C40.7907 19.0564 39.5435 18.0833 38.137 17.4161C36.7304 16.7489 35.1984 16.4036 33.6479 16.4043C31.2236 16.4043 28.8232 16.894 26.5845 17.8453C24.3458 18.7966 22.313 20.1908 20.6028 21.9477C18.8927 23.7047 17.5388 25.7898 16.619 28.0833C15.6992 30.3769 15.2316 32.8336 15.2431 35.3124C15.25 37.9094 15.8008 40.4748 16.8585 42.8359C17.9161 45.197 19.4561 47.2991 21.3748 49.0007C23.464 50.8685 25.9141 52.2658 28.5659 53.102C31.2177 53.9381 34.012 54.1944 36.767 53.854C43.3144 53.029 49.3186 49.7154 53.5863 44.5717C57.854 39.428 60.0729 32.8308 59.802 26.0911Z" fill="#00874B"></path>
</svg><style>@media (prefers-color-scheme: light) { :root { filter: none; } }
</style></svg>