<?xml version="1.0" encoding="UTF-8"?>
<!DOCTYPE svg PUBLIC "-//W3C//DTD SVG 1.1//EN" "http://www.w3.org/Graphics/SVG/1.1/DTD/svg11.dtd">
<svg xmlns="http://www.w3.org/2000/svg" xmlns:xlink="http://www.w3.org/1999/xlink">
<symbol id="arrow-right" viewBox="0 0 19 16">
	<path d="M17.717 9.06a1.5 1.5 0 0 0 0-2.12L12.06 1.281a1.5 1.5 0 0 0-2.122 2.122L13.035 6.5H1.5a1.5 1.5 0 0 0 0 3h11.535l-3.096 3.096a1.502 1.502 0 0 0 1.635 2.447 1.5 1.5 0 0 0 .487-.325l5.656-5.658Z"/>
</symbol>
<symbol id="profile" viewBox="0 0 18 19">
	<path stroke="#000" stroke-linecap="round" stroke-linejoin="round" stroke-width="1.3" d="M3.61 15.5c1.866-.8 3.066-1.467 3.6-2 .8-.8-1.6-.8-1.6-4.8 0-2.667 1.066-4 3.2-4 2.133 0 3.2 1.333 3.2 4 0 4-2.4 4-1.6 4.8.533.533 1.733 1.2 3.6 2"/>
	<path stroke="#000" stroke-linecap="round" stroke-linejoin="round" stroke-width="1.3" d="M8.81 17.5a8 8 0 1 0 0-16 8 8 0 0 0 0 16Z"/>
</symbol>
</svg>