<svg width="48" height="48" viewBox="0 0 48 48" fill="none" xmlns="http://www.w3.org/2000/svg">
<path d="M39.4688 21.2812C39.4688 21.075 39.3 20.9062 39.0938 20.9062H36.2812C36.075 20.9062 35.9062 21.075 35.9062 21.2812C35.9062 27.8578 30.5766 33.1875 24 33.1875C17.4234 33.1875 12.0938 27.8578 12.0938 21.2812C12.0938 21.075 11.925 20.9062 11.7188 20.9062H8.90625C8.7 20.9062 8.53125 21.075 8.53125 21.2812C8.53125 29.1891 14.4656 35.7141 22.125 36.6375V41.4375H15.3141C14.6719 41.4375 14.1562 42.1078 14.1562 42.9375V44.625C14.1562 44.8312 14.2875 45 14.4469 45H33.5531C33.7125 45 33.8438 44.8312 33.8438 44.625V42.9375C33.8438 42.1078 33.3281 41.4375 32.6859 41.4375H25.6875V36.6609C33.4359 35.8172 39.4688 29.2547 39.4688 21.2812ZM24 29.25C28.4016 29.25 31.9688 25.725 31.9688 21.375V10.875C31.9688 6.525 28.4016 3 24 3C19.5984 3 16.0312 6.525 16.0312 10.875V21.375C16.0312 25.725 19.5984 29.25 24 29.25ZM19.5938 10.875C19.5938 8.50313 21.5578 6.5625 24 6.5625C26.4422 6.5625 28.4062 8.50313 28.4062 10.875V21.375C28.4062 23.7469 26.4422 25.6875 24 25.6875C21.5578 25.6875 19.5938 23.7469 19.5938 21.375V10.875Z" fill="white"/>
</svg>
