<svg width="49" height="48" viewBox="0 0 49 48" fill="none" xmlns="http://www.w3.org/2000/svg">
<path fill-rule="evenodd" clip-rule="evenodd" d="M28.0996 9.6001H11.2996C9.39005 9.6001 7.5587 10.3587 6.20844 11.7089C4.85818 13.0592 4.09961 14.8905 4.09961 16.8001V31.2001C4.09961 33.1097 4.85818 34.941 6.20844 36.2913C7.5587 37.6415 9.39005 38.4001 11.2996 38.4001H28.0996C30.0092 38.4001 31.8405 37.6415 33.1908 36.2913C34.541 34.941 35.2996 33.1097 35.2996 31.2001V16.8001C35.2996 14.8905 34.541 13.0592 33.1908 11.7089C31.8405 10.3587 30.0092 9.6001 28.0996 9.6001ZM8.89961 16.8001C8.89961 16.1636 9.15247 15.5531 9.60255 15.103C10.0526 14.653 10.6631 14.4001 11.2996 14.4001H28.0996C28.7361 14.4001 29.3466 14.653 29.7967 15.103C30.2468 15.5531 30.4996 16.1636 30.4996 16.8001V31.2001C30.4996 31.8366 30.2468 32.4471 29.7967 32.8972C29.3466 33.3472 28.7361 33.6001 28.0996 33.6001H11.2996C10.6631 33.6001 10.0526 33.3472 9.60255 32.8972C9.15247 32.4471 8.89961 31.8366 8.89961 31.2001V16.8001Z" fill="white"/>
<path fill-rule="evenodd" clip-rule="evenodd" d="M41.1409 12.4224L32.8177 18.1368C32.4997 18.3551 32.239 18.6469 32.0577 18.9874C31.8763 19.3279 31.7798 19.7071 31.7761 20.0928L31.6993 27.8088C31.6956 28.2023 31.7886 28.5906 31.9702 28.9396C32.1519 29.2887 32.4165 29.5877 32.7409 29.8104L41.1409 35.5776C41.5013 35.825 41.9223 35.9693 42.3587 35.9949C42.795 36.0205 43.2301 35.9265 43.6169 35.723C44.0037 35.5194 44.3276 35.2141 44.5536 34.84C44.7796 34.4658 44.8992 34.0371 44.8993 33.6V14.4C44.8992 13.9629 44.7796 13.5342 44.5536 13.16C44.3276 12.7859 44.0037 12.4806 43.6169 12.2771C43.2301 12.0735 42.795 11.9795 42.3587 12.0051C41.9223 12.0307 41.5013 12.175 41.1409 12.4224ZM40.0993 29.04L36.5113 26.5776L36.5641 21.3864L40.0993 18.96V29.04Z" fill="white"/>
</svg>
