<svg width="48" height="48" viewBox="0 0 48 48" fill="none" xmlns="http://www.w3.org/2000/svg">
<path fill-rule="evenodd" clip-rule="evenodd" d="M27.6 9.6001H10.8C8.89042 9.6001 7.05907 10.3587 5.70881 11.7089C4.35855 13.0592 3.59998 14.8905 3.59998 16.8001V31.2001C3.59998 33.1097 4.35855 34.941 5.70881 36.2913C7.05907 37.6415 8.89042 38.4001 10.8 38.4001H27.6C29.5095 38.4001 31.3409 37.6415 32.6911 36.2913C34.0414 34.941 34.8 33.1097 34.8 31.2001V16.8001C34.8 14.8905 34.0414 13.0592 32.6911 11.7089C31.3409 10.3587 29.5095 9.6001 27.6 9.6001ZM8.39998 16.8001C8.39998 16.1636 8.65283 15.5531 9.10292 15.103C9.55301 14.653 10.1635 14.4001 10.8 14.4001H27.6C28.2365 14.4001 28.8469 14.653 29.297 15.103C29.7471 15.5531 30 16.1636 30 16.8001V31.2001C30 31.8366 29.7471 32.4471 29.297 32.8972C28.8469 33.3472 28.2365 33.6001 27.6 33.6001H10.8C10.1635 33.6001 9.55301 33.3472 9.10292 32.8972C8.65283 32.4471 8.39998 31.8366 8.39998 31.2001V16.8001Z" fill="#00874B"/>
<path fill-rule="evenodd" clip-rule="evenodd" d="M40.6415 12.4224L32.3183 18.1368C32.0003 18.3551 31.7396 18.6469 31.5583 18.9874C31.3769 19.3279 31.2804 19.7071 31.2767 20.0928L31.1999 27.8088C31.1962 28.2023 31.2892 28.5906 31.4708 28.9396C31.6525 29.2887 31.9171 29.5877 32.2415 29.8104L40.6415 35.5776C41.0019 35.825 41.4229 35.9693 41.8593 35.9949C42.2956 36.0205 42.7307 35.9265 43.1175 35.723C43.5043 35.5194 43.8282 35.2141 44.0542 34.84C44.2802 34.4658 44.3998 34.0371 44.3999 33.6V14.4C44.3998 13.9629 44.2802 13.5342 44.0542 13.16C43.8282 12.7859 43.5043 12.4806 43.1175 12.2771C42.7307 12.0735 42.2956 11.9795 41.8593 12.0051C41.4229 12.0307 41.0019 12.175 40.6415 12.4224ZM39.5999 29.04L36.0119 26.5776L36.0647 21.3864L39.5999 18.96V29.04Z" fill="#00874B"/>
</svg>
