<svg width="45" height="45" viewBox="0 0 45 45" fill="none" xmlns="http://www.w3.org/2000/svg">
<path d="M22.5 -9.83506e-07C34.9264 -4.40331e-07 45 10.0736 45 22.5C45 34.9264 34.9264 45 22.5 45L-1.96701e-06 45L-9.83506e-07 22.5C-4.40331e-07 10.0736 10.0736 -1.52668e-06 22.5 -9.83506e-07Z" fill="#00874B"/>
<path d="M27.2557 36H18V34.8169L20.8803 32.4836V23.2817L18 21.277V20.0939L23.6958 17.8592H25.0874V33.4366L28 34.5211L27.2557 36ZM22.8544 8C23.5663 8 24.1489 8.26291 24.6019 8.78873C25.055 9.29264 25.2816 9.91706 25.2816 10.662C25.2816 11.1878 25.1197 11.6917 24.7961 12.1737C24.4725 12.6338 24.0626 13.0063 23.5663 13.2911C23.0701 13.554 22.5847 13.6854 22.11 13.6854C21.4196 13.6854 20.8479 13.4335 20.3948 12.9296C19.9417 12.4257 19.7152 11.7903 19.7152 11.0235C19.7152 10.4977 19.877 10.0047 20.2006 9.5446C20.5243 9.0626 20.9342 8.69014 21.4304 8.42723C21.9266 8.14241 22.4013 8 22.8544 8Z" fill="white"/>
</svg>
