<svg width="48" height="48" viewBox="0 0 48 48" fill="none" xmlns="http://www.w3.org/2000/svg">
<path d="M7 23.5V13H14.875V11.25C14.875 9.85761 15.4281 8.52226 16.4127 7.53769C17.3973 6.55312 18.7326 6 20.125 6C21.5174 6 22.8527 6.55312 23.8373 7.53769C24.8219 8.52226 25.375 9.85761 25.375 11.25V13H33.25V23.5H36.75C38.1424 23.5 39.4777 24.0531 40.4623 25.0377C41.4469 26.0223 42 27.3576 42 28.75C42 30.1424 41.4469 31.4777 40.4623 32.4623C39.4777 33.4469 38.1424 34 36.75 34H33.25V41H7V34H10.5C11.8924 34 13.2277 33.4469 14.2123 32.4623C15.1969 31.4777 15.75 30.1424 15.75 28.75C15.75 27.3576 15.1969 26.0223 14.2123 25.0377C13.2277 24.0531 11.8924 23.5 10.5 23.5H7Z" stroke="#00874B" stroke-width="4" stroke-linejoin="round"/>
</svg>
